<?xml version="1.0" encoding="UTF-8"?><svg id="Camada_2" xmlns="http://www.w3.org/2000/svg" viewBox="0 0 181.4 190.63"><defs><style>.cls-1{fill:#35a29f;}</style></defs><g id="Layer_2"><g><path class="cls-1" d="M66.63,72.9c0,2.66,2.16,4.82,4.82,4.82s4.82-2.16,4.82-4.82-2.16-4.82-4.82-4.82-4.82,2.16-4.82,4.82Z"/><path class="cls-1" d="M114.83,72.9c0-2.66-2.16-4.82-4.82-4.82s-4.82,2.16-4.82,4.82,2.16,4.82,4.82,4.82,4.82-2.16,4.82-4.82Z"/><path class="cls-1" d="M149.48,145.52c-3.13-.87-6.08-1.7-8.48-2.75-1.55-.68-3.36,.02-4.04,1.57-.68,1.55,.02,3.36,1.57,4.04,2.79,1.23,5.95,2.11,9.3,3.04,12.71,3.55,27.06,7.55,27.43,33.07H6.14c.33-25.41,14.04-29.27,27.32-33,3.39-.95,6.6-1.86,9.42-3.12,12.8-5.73,17.37-13.08,18.93-18.4,8.11,5.96,18.11,9.49,28.92,9.49,5.18,0,10.3-.82,15.22-2.43,1.61-.53,2.49-2.26,1.96-3.87-.53-1.61-2.26-2.49-3.87-1.96-4.31,1.41-8.79,2.12-13.32,2.12-23.62,0-42.83-19.21-42.83-42.83v-26.78c0-8.47,2.48-16.36,6.74-23.02,5.48,6.14,18,13.48,36.51,13.48h.01c.99,0,1.93-.48,2.5-1.29,.57-.81,.72-1.85,.39-2.79-1.91-5.43-1.71-7.76-1.48-8.62,3.46,1.29,12.56,4.48,18.38,4.63,1.7,.04,3.1-1.3,3.14-2.99,.04-1.69-1.3-3.1-2.99-3.14-5.02-.13-14.44-3.45-17.65-4.72-.33-.13-.69-.21-1.05-.22-1.3-.03-3.28,.58-4.63,2.42-1.66,2.28-1.93,5.72-.78,10.46-16.54-1.08-25.81-8.48-28.59-12.25,7.86-9.04,19.43-14.78,32.32-14.78,23.62,0,42.83,19.21,42.83,42.83v30.81c0,1.69,1.37,3.07,3.07,3.07h5.98c-1.1,8.84-8.64,15.71-17.77,15.71h-15.47c-1.01-1.58-2.78-2.63-4.79-2.63-3.14,0-5.7,2.56-5.7,5.7s2.56,5.7,5.7,5.7c2.01,0,3.78-1.05,4.79-2.63h15.47c12.52,0,22.83-9.61,23.95-21.84h6.43c4.74,0,8.6-3.86,8.6-8.6v-19.74c0-4.74-3.86-8.6-8.6-8.6h-.84C152.77,26.94,124.84,0,90.73,0S28.69,26.94,27.08,60.66h-.84c-4.74,0-8.6,3.86-8.6,8.6v19.74c0,4.74,3.86,8.6,8.6,8.6h16.04c1.58,10.81,6.7,20.48,14.14,27.8-.12,3.35-2.05,11.12-16.05,17.38-2.41,1.08-5.41,1.92-8.58,2.81C18.03,149.46-.83,154.76,.03,187.64c.04,1.66,1.4,2.99,3.07,2.99H178.31c1.66,0,3.02-1.32,3.07-2.99,.86-32.98-18.07-38.27-31.89-42.12Zm8.2-76.26v19.74c0,1.36-1.11,2.47-2.47,2.47h-15.52v-24.68h15.52c1.36,0,2.47,1.11,2.47,2.47ZM90.73,6.13c30.73,0,55.91,24.19,57.51,54.52h-8.65c-1.59-25.57-22.89-45.9-48.86-45.9s-47.27,20.32-48.86,45.9h-8.65c1.6-30.33,26.78-54.52,57.51-54.52ZM41.77,91.47h-15.52c-1.36,0-2.47-1.11-2.47-2.47v-19.74c0-1.36,1.11-2.47,2.47-2.47h15.52v24.68Z"/><path class="cls-1" d="M116.55,152.54c-15.69,7.89-35.98,7.89-51.67,0-1.51-.76-3.36-.15-4.12,1.36-.76,1.51-.15,3.36,1.36,4.12,8.68,4.37,18.64,6.55,28.59,6.55s19.91-2.18,28.59-6.55c1.51-.76,2.12-2.61,1.36-4.12-.76-1.51-2.61-2.13-4.12-1.36Z"/></g></g></svg>