<?xml version="1.0" encoding="UTF-8"?><svg id="Camada_2" xmlns="http://www.w3.org/2000/svg" viewBox="0 0 171.24 185.92"><defs><style>.cls-1{fill:#35a29f;}</style></defs><g id="Layer_2"><g><path class="cls-1" d="M146.99,122.16h-15.3c-3.99,0-7.72-1.77-10.24-4.87l-6.96-8.55c-1.28-1.57-3.17-2.47-5.2-2.47H61.95c-2.03,0-3.92,.9-5.2,2.47l-6.96,8.55c-2.52,3.09-6.25,4.87-10.24,4.87h-15.3c-3,0-5.94-1.04-8.28-2.92L1.74,107.78c-1.56-1.26-2.14-3.29-1.47-5.18,.67-1.89,2.39-3.11,4.39-3.11H26.09c1.93,0,3.5-1.57,3.5-3.5v-9.4c0-1.93-1.57-3.5-3.5-3.5H4.67c-2,0-3.73-1.22-4.39-3.11-.67-1.89-.09-3.92,1.47-5.18l14.23-11.46c2.34-1.88,5.28-2.92,8.28-2.92h15.3c3.99,0,7.72,1.77,10.24,4.87l6.96,8.55c1.28,1.57,3.17,2.47,5.2,2.47h47.35c2.03,0,3.92-.9,5.2-2.47l6.96-8.55c2.52-3.09,6.25-4.87,10.24-4.87h15.3c3,0,5.94,1.04,8.28,2.92l14.23,11.46c1.56,1.26,2.14,3.29,1.47,5.18-.67,1.89-2.39,3.11-4.39,3.11h-21.43c-1.93,0-3.5,1.57-3.5,3.5v9.4c0,1.93,1.57,3.5,3.5,3.5h21.43c2,0,3.73,1.22,4.39,3.11,.67,1.89,.09,3.92-1.47,5.18l-14.23,11.46c-2.34,1.88-5.28,2.92-8.28,2.92Zm-85.04-21.89h47.35c3.84,0,7.43,1.71,9.86,4.69l6.96,8.55c1.37,1.69,3.41,2.66,5.58,2.66h15.3c1.64,0,3.24-.57,4.51-1.59l11.26-9.07h-17.62c-5.24,0-9.5-4.26-9.5-9.5v-9.4c0-5.24,4.26-9.5,9.5-9.5h17.62l-11.26-9.07c-1.27-1.03-2.88-1.59-4.51-1.59h-15.3c-2.17,0-4.21,.97-5.58,2.66l-6.96,8.55c-2.42,2.98-6.01,4.69-9.86,4.69H61.95c-3.84,0-7.43-1.71-9.86-4.69l-6.96-8.55c-1.37-1.69-3.41-2.66-5.58-2.66h-15.3c-1.64,0-3.24,.57-4.51,1.59l-11.26,9.07H26.09c5.24,0,9.5,4.26,9.5,9.5v9.4c0,5.24-4.26,9.5-9.5,9.5H8.47l11.26,9.07c1.27,1.03,2.88,1.59,4.51,1.59h15.3c2.17,0,4.21-.97,5.58-2.66l6.96-8.55c2.42-2.98,6.01-4.69,9.86-4.69Z"/><path class="cls-1" d="M73.78,69.76c-1.66,0-3-1.34-3-3v-27.45H37.72c-1.66,0-3-1.34-3-3s1.34-3,3-3h36.06c1.66,0,3,1.34,3,3v30.45c0,1.66-1.34,3-3,3Z"/><path class="cls-1" d="M26.68,50.14c-7.74,0-14.04-6.3-14.04-14.04s6.3-14.04,14.04-14.04,14.04,6.3,14.04,14.04-6.3,14.04-14.04,14.04Zm0-22.07c-4.43,0-8.04,3.6-8.04,8.04s3.6,8.04,8.04,8.04,8.04-3.6,8.04-8.04-3.6-8.04-8.04-8.04Z"/><path class="cls-1" d="M97.46,69.76c-1.66,0-3-1.34-3-3v-30.45c0-1.66,1.34-3,3-3h36.06c1.66,0,3,1.34,3,3s-1.34,3-3,3h-33.06v27.45c0,1.66-1.34,3-3,3Z"/><path class="cls-1" d="M144.56,50.14c-7.74,0-14.04-6.3-14.04-14.04s6.3-14.04,14.04-14.04,14.04,6.3,14.04,14.04-6.3,14.04-14.04,14.04Zm0-22.07c-4.43,0-8.04,3.6-8.04,8.04s3.6,8.04,8.04,8.04,8.04-3.6,8.04-8.04-3.6-8.04-8.04-8.04Z"/><path class="cls-1" d="M85.62,28.07c-7.74,0-14.04-6.3-14.04-14.04S77.88,0,85.62,0s14.04,6.3,14.04,14.04-6.3,14.04-14.04,14.04Zm0-22.07c-4.43,0-8.04,3.6-8.04,8.04s3.61,8.04,8.04,8.04,8.04-3.61,8.04-8.04-3.6-8.04-8.04-8.04Z"/><path class="cls-1" d="M85.62,69.76c-1.66,0-3-1.34-3-3V25.07c0-1.66,1.34-3,3-3s3,1.34,3,3v41.69c0,1.66-1.34,3-3,3Z"/><path class="cls-1" d="M133.52,152.6h-36.06c-1.66,0-3-1.34-3-3v-30.45c0-1.66,1.34-3,3-3s3,1.34,3,3v27.45h33.06c1.66,0,3,1.34,3,3s-1.34,3-3,3Z"/><path class="cls-1" d="M144.56,163.84c-7.74,0-14.04-6.3-14.04-14.04s6.3-14.04,14.04-14.04,14.04,6.3,14.04,14.04-6.3,14.04-14.04,14.04Zm0-22.07c-4.43,0-8.04,3.61-8.04,8.04s3.6,8.04,8.04,8.04,8.04-3.6,8.04-8.04-3.6-8.04-8.04-8.04Z"/><path class="cls-1" d="M73.78,152.6H37.72c-1.66,0-3-1.34-3-3s1.34-3,3-3h33.06v-27.45c0-1.66,1.34-3,3-3s3,1.34,3,3v30.45c0,1.66-1.34,3-3,3Z"/><path class="cls-1" d="M26.68,163.84c-7.74,0-14.04-6.3-14.04-14.04s6.3-14.04,14.04-14.04,14.04,6.3,14.04,14.04-6.3,14.04-14.04,14.04Zm0-22.07c-4.43,0-8.04,3.61-8.04,8.04s3.6,8.04,8.04,8.04,8.04-3.6,8.04-8.04-3.6-8.04-8.04-8.04Z"/><path class="cls-1" d="M85.62,185.92c-7.74,0-14.04-6.3-14.04-14.04s6.3-14.04,14.04-14.04,14.04,6.3,14.04,14.04-6.3,14.04-14.04,14.04Zm0-22.07c-4.43,0-8.04,3.6-8.04,8.04s3.61,8.04,8.04,8.04,8.04-3.61,8.04-8.04-3.6-8.04-8.04-8.04Z"/><path class="cls-1" d="M85.62,163.84c-1.66,0-3-1.34-3-3v-41.69c0-1.66,1.34-3,3-3s3,1.34,3,3v41.69c0,1.66-1.34,3-3,3Z"/></g></g></svg>