<?xml version="1.0" encoding="UTF-8"?><svg id="Camada_2" xmlns="http://www.w3.org/2000/svg" xmlns:xlink="http://www.w3.org/1999/xlink" viewBox="0 0 513 89.56"><defs><style>.cls-1{fill:#1a5632;}.cls-2{clip-path:url(#clippath);}.cls-3{fill:none;}</style><clipPath id="clippath"><rect class="cls-3" width="513" height="89.56"/></clipPath></defs><g id="Camada_1-2"><g class="cls-2"><path class="cls-1" d="M338.77,67.81l-7.48,.78v2.21l4.6-.04v18.5h2.87v-21.45Zm-21.88,10.77c-.64-.89-.96-2.07-.96-3.52s.35-2.69,1.04-3.61c.69-.93,1.56-1.39,2.59-1.39,1.28,0,2.27,.43,2.98,1.28,.7,.86,1.06,2.08,1.06,3.65v2.5c-.31,.71-.81,1.29-1.49,1.74-.68,.45-1.52,.68-2.52,.68-1.16,0-2.06-.45-2.7-1.34m-.05,8.56c-.61-.13-1.24-.35-1.88-.66l-.44,2.18c.67,.3,1.4,.53,2.19,.68,.78,.15,1.54,.23,2.28,.23,2.2,0,3.99-.68,5.39-2.04,1.39-1.36,2.09-3.26,2.09-5.69v-6.42c0-2.42-.64-4.29-1.92-5.62-1.28-1.32-2.97-1.99-5.08-1.99-1.81,0-3.33,.67-4.56,2.03-1.23,1.35-1.84,3.09-1.84,5.22s.57,3.97,1.73,5.22c1.15,1.25,2.75,1.88,4.78,1.88,.82,0,1.58-.17,2.28-.53,.69-.35,1.27-.87,1.73-1.56v1.8c0,1.74-.43,3.09-1.27,4.03-.85,.95-1.96,1.42-3.33,1.42-.82,0-1.54-.06-2.16-.19m-16.69-8.56c-.64-.89-.96-2.07-.96-3.52s.35-2.69,1.04-3.61c.69-.93,1.56-1.39,2.59-1.39,1.28,0,2.27,.43,2.98,1.28,.7,.86,1.06,2.08,1.06,3.65v2.5c-.31,.71-.81,1.29-1.49,1.74-.68,.45-1.53,.68-2.52,.68-1.16,0-2.06-.45-2.7-1.34m-.05,8.56c-.61-.13-1.24-.35-1.88-.66l-.44,2.18c.67,.3,1.4,.53,2.19,.68,.78,.15,1.54,.23,2.28,.23,2.2,0,3.99-.68,5.39-2.04,1.39-1.36,2.09-3.26,2.09-5.69v-6.42c0-2.42-.64-4.29-1.92-5.62-1.28-1.32-2.97-1.99-5.08-1.99-1.81,0-3.33,.67-4.56,2.03-1.23,1.35-1.84,3.09-1.84,5.22s.57,3.97,1.73,5.22c1.15,1.25,2.75,1.88,4.78,1.88,.82,0,1.58-.17,2.28-.53,.69-.35,1.27-.87,1.73-1.56v1.8c0,1.74-.43,3.09-1.27,4.03-.84,.95-1.96,1.42-3.33,1.42-.82,0-1.54-.06-2.16-.19m-11.55-19.32l-7.47,.78v2.21l4.6-.04v18.5h2.87v-21.45Zm-20.09,9.39h-8.68v-6.84h10v-2.25h-12.86v21.14h13.03v-2.24h-10.17v-7.57h8.68v-2.25Zm-25.04-6.84c1.95,0,3.5,.64,4.62,1.93,1.13,1.29,1.69,2.93,1.69,4.92v2.92c0,2.01-.56,3.66-1.69,4.95-1.13,1.29-2.67,1.93-4.62,1.93h-3.79v-16.66h3.79Zm0,18.89c2.76,0,4.98-.84,6.66-2.53,1.68-1.69,2.52-3.89,2.52-6.59v-2.89c0-2.69-.84-4.89-2.52-6.58-1.68-1.7-3.9-2.55-6.66-2.55h-6.65v21.14h6.65Zm-14.75-2.85c-.79,.61-1.86,.91-3.22,.91-1.27,0-2.4-.36-3.42-1.08-1.01-.72-1.51-1.74-1.51-3.07h-2.73l-.03,.09c-.05,1.92,.71,3.44,2.28,4.59,1.56,1.14,3.37,1.71,5.41,1.71,2.16,0,3.91-.52,5.25-1.56,1.34-1.04,2.01-2.4,2.01-4.11,0-1.58-.56-2.9-1.67-3.98-1.12-1.08-2.74-1.89-4.87-2.44-1.75-.47-3.01-1.01-3.8-1.62-.78-.61-1.17-1.38-1.17-2.3,0-1.04,.36-1.88,1.07-2.53,.71-.65,1.73-.97,3.07-.97s2.38,.39,3.22,1.17c.84,.78,1.26,1.78,1.26,2.98h2.73l.04-.09c.04-1.69-.6-3.16-1.92-4.42-1.32-1.26-3.09-1.89-5.32-1.89-2.07,0-3.75,.55-5.05,1.66-1.3,1.1-1.95,2.48-1.95,4.14,0,1.57,.6,2.87,1.81,3.91,1.2,1.04,2.88,1.82,5.03,2.35,1.73,.46,2.94,1.01,3.63,1.66,.68,.65,1.03,1.45,1.03,2.41,0,1.05-.4,1.87-1.18,2.48m-14.95-9.21h-8.68v-6.84h10v-2.25h-12.86v21.14h13.03v-2.24h-10.17v-7.57h8.68v-2.25Zm-25.04-6.84c1.96,0,3.5,.64,4.62,1.93,1.13,1.29,1.69,2.93,1.69,4.92v2.92c0,2.01-.56,3.66-1.69,4.95-1.13,1.29-2.67,1.93-4.62,1.93h-3.79v-16.66h3.79Zm0,18.89c2.76,0,4.98-.84,6.66-2.53,1.68-1.69,2.52-3.89,2.52-6.59v-2.89c0-2.69-.84-4.89-2.52-6.58-1.68-1.7-3.9-2.55-6.66-2.55h-6.65v21.14h6.65Z"/><path class="cls-1" d="M12.4,3.21l.14,42.26h2.08l-.14-39.82c1.35-.18,2.54-.27,3.54-.27,2.09,0,3.85,.24,5.28,.73,1.01,.35,2.09,1.05,3.25,2.1-2.72-1.22-5.59-1.83-8.6-1.82-.68,0-1.52,.04-2.53,.12l.14,38.94c2.51,0,4.44-.19,5.78-.55,1.34-.36,2.62-1.01,3.82-1.97,2.45-2.02,4.24-5.27,5.35-9.74,.69-2.84,1.04-6.07,1.02-9.69-.02-5.73-1.03-10.4-3.02-14.01-1.44-2.53-3.42-4.25-5.94-5.14-2.29-.8-5.01-1.19-8.15-1.18-.3,0-.98,.02-2.03,.04M2.35,51.5l-.57-1.02,13.79-.04c5.93-.02,10.48-.69,13.64-2.01,5.29-2.21,9-6.04,11.12-11.5,1.32-3.35,1.97-7.68,1.95-13.02-.02-5.27-.79-9.44-2.3-12.51-.89-1.8-2.04-3.48-3.45-5.04-.65-.72-1.11-1.24-1.36-1.54,5.34,3.32,8.02,9.69,8.05,19.08,.04,11.06-3.12,18.86-9.49,23.4-3.86,2.73-9.91,4.1-18.16,4.13l-13.23,.04ZM.96,.05L15.81,0c7.29-.03,12.68,1.35,16.19,4.12,5.22,4.1,7.84,10.59,7.87,19.46,.03,9.95-2.72,16.92-8.26,20.91-2.63,1.89-5.75,3.07-9.37,3.54-1.43,.21-3.5,.31-6.22,.32L0,48.42l5.15-3.98-.14-40.07L.96,.05Z"/><path class="cls-1" d="M59.28,32.64l-6.4,12.69-.91-.41,6.44-12.72,.87,.45Zm2.33,18.99l-3.87,3.9,.06,17.68,6.28,7.18c-7.42-.02-13.13-.03-17.15-.01-3.42,0-6.76,.05-10.03,.11-.73,.03-1.32,.04-1.77,.04-2.31,0-4.43-.7-6.34-2.13h.79c1.71,.74,3.96,1.12,6.75,1.11l2.15-.04,23.48-.08-5.22-5.75-.06-18.47,4.32-4.39,.61,.87Zm-14.37-13.22c-1.18-.82-2.14-1.45-2.87-1.87-1.89-1.1-3.75-1.65-5.59-1.64-3.29,0-5.98,1.25-8.05,3.72-1.35,1.59-2.25,3.34-2.7,5.25-.64,2.82-.96,6.02-.95,9.62,.01,4.45,.37,7.88,1.06,10.29,.99,3.37,3.01,6.26,6.06,8.68v.42c-2.09-1.22-3.74-2.74-4.95-4.55-2.2-3.31-3.31-8.6-3.34-15.9-.02-6.33,1.32-11.16,4.02-14.49,2.2-2.72,5.1-4.09,8.69-4.1,3.52,0,6.39,1.44,8.61,4.34v.23Zm9.77-8.14l-7,13.9c-.37-3.01-1.16-5.46-2.4-7.35-.91-1.43-2.13-2.55-3.67-3.38-1.79-.95-3.75-1.42-5.88-1.41-3.98,.01-7.25,1.46-9.82,4.33-1.71,1.89-2.88,3.99-3.52,6.31-.92,3.2-1.37,6.72-1.36,10.56,.03,9.27,2.52,15.57,7.45,18.89,2.65,1.77,6.14,2.66,10.49,2.64l6.07-.02-.07-19.57-9.5,.03c-2.14,0-3.7-.12-4.68-.4-.8-.22-1.59-.69-2.34-1.39v-.94c.9,.7,1.74,1.14,2.52,1.31,.86,.22,2.39,.33,4.6,.32l9.38-.03v-2.04l-10.48,.04c-1.94,0-3.36-.11-4.26-.36-2.04-.57-3.06-1.81-3.07-3.72,0-1.06,.33-1.98,1.01-2.76,.6-.7,1.3-1.06,2.11-1.07,.85,0,1.55,.34,2.08,1.01,.3,.43,.46,.89,.46,1.39,0,.73-.26,1.31-.79,1.74-.12,.1-.55,.23-1.28,.38-.3,.07-.45,.19-.45,.34,0,.35,.83,.53,2.49,.52l24.88-.08-5.18,5.11,.06,18.58,4.84,4.13-19.27,.06c-4.4,0-6.87-.04-7.42-.08-3.09-.34-6.11-1.63-9.06-3.85-3.55-2.65-6.12-6.19-7.69-10.61-1.02-2.88-1.53-5.97-1.54-9.26-.01-4.48,.85-8.62,2.59-12.45,2.02-4.33,5.14-7.59,9.35-9.8,3.24-1.67,6.5-2.51,9.79-2.52,2.69,0,5.7,.43,9.01,1.32l3.51,.93c1.11,.3,2.19,.44,3.25,.44,1.53,0,3.13-.42,4.78-1.22"/><path class="cls-1" d="M511.1,49.36c.8,1.13,1.2,2.26,1.2,3.4s-.44,2.15-1.32,3.01c-.86,.84-1.84,1.26-2.95,1.26s-2.35-.37-3.59-1.11l-.21,.2c.98,1.17,2.22,1.75,3.72,1.75,1.4,0,2.6-.51,3.59-1.52,.98-1.01,1.46-2.21,1.46-3.59s-.55-2.61-1.64-3.6l-.26,.2Zm-7.17-.38c-.76,.74-1.14,1.65-1.14,2.72s.37,1.95,1.11,2.69c.74,.74,1.64,1.11,2.69,1.11s1.98-.38,2.72-1.14c.72-.74,1.08-1.63,1.08-2.66s-.37-1.95-1.11-2.69c-.74-.74-1.62-1.11-2.63-1.11s-1.96,.36-2.72,1.08m-12.72-17.61c.43,1.91,1.38,4.2,2.86,6.87-1.39-.17-2.58-.26-3.6-.26-.78,0-1.51,.09-2.2,.26l5.21,13.77,5.26,4.65h-15.53l.56,.79h16.93l-6.52-5.76-4.88-12.96c.31-.02,.51-.03,.58-.03,1.07,0,2.88,.15,5.44,.44-1.75-3.14-2.83-5.55-3.22-7.23l-.9-.56Zm-15.47-5.59l-3.74,9.89c1.73,1.56,3.33,3.46,4.77,5.7-.45,.53-.79,.93-1.03,1.2-2.03-2.77-3.85-5.02-5.47-6.76l4.65-12.28,.82,2.25Zm4.51,11.91c-1.23,1.09-2.23,2.14-2.98,3.13-1.13-1.68-2.05-2.91-2.75-3.71-.82-.92-1.31-1.48-1.49-1.7l3.22-8.49,4,10.77Zm-10.27-20.15l3.1,3.34-3.98,10.94c-1-.96-1.99-1.74-2.98-2.37l-.47,.64c.86,.66,1.88,1.52,3.07,2.57l-.53,1.29c-.6-.45-1.14-.89-1.61-1.32-.93-.86-1.54-1.42-1.81-1.7-.18,.53-.51,1.29-1,2.31-.6,1.25-1.1,2.15-1.49,2.69,.68,.06,1.51,.25,2.49,.58,.93,.33,1.6,.67,1.99,1.02-1.77,6.18-4.02,10.84-6.73,13.98-1.23,1.34-2.85,2.52-4.86,3.54h14.62c-1.17-1.27-1.84-2-2.02-2.2-.93-1.11-1.4-2.44-1.4-4,0-1.08,.39-2.81,1.17-5.21,.76-2.37,1.28-3.89,1.55-4.53l1.28,1.34c-1.62,3.94-2.42,6.91-2.42,8.92,0,1.68,.54,3.26,1.61,4.74,.43,.57,1.1,1.41,2.02,2.54h-14.88l.58,.79h15.79c-1.38-1.75-2.22-2.83-2.51-3.22-1.19-1.58-1.78-3.23-1.78-4.94,0-2.11,.75-4.82,2.25-8.16,1.79,2.32,3.37,4.57,4.71,6.73,.55-.94,1.42-2.12,2.63-3.54,1.13-1.34,2.18-2.41,3.13-3.19l.56,1.29c-2.27,2.32-4.06,4.55-5.38,6.7l.67,.17c.45-.76,1.24-1.86,2.4-3.3,.95-1.17,1.8-2.13,2.54-2.87l3.25,8.54-4.03,3.4h14.77l-4.39-3.4-5.29-14.36c.86-.58,2.21-.88,4.04-.88,.27,0,.69,.02,1.25,.06-.43-.7-.9-1.71-1.4-3.01-.45-1.21-.76-2.19-.94-2.95-.13,.18-.51,.51-1.11,1-.68,.58-1.14,.97-1.37,1.14l-4.09-10.91,2.95-3.42-.76-.32-3.1,3.57,4.33,11.52-1.17,.64-4.8-12.75,3.04-3.45h-13.48Zm-34.92,39.92c6.39,0,11.09-1.05,14.1-3.16,4.95-3.51,7.42-9.55,7.42-18.13,0-7.29-2.07-12.23-6.2-14.83,.19,.23,.55,.63,1.05,1.19,1.09,1.21,1.98,2.52,2.66,3.92,1.17,2.38,1.75,5.62,1.75,9.71s-.52,7.5-1.55,10.09c-1.66,4.23-4.54,7.19-8.65,8.89-2.46,1.02-5.99,1.52-10.59,1.52h-10.71l.44,.79h10.27Zm-.76-37.46c2.44,0,4.55,.31,6.32,.94,1.95,.7,3.48,2.04,4.59,4,1.54,2.81,2.31,6.43,2.31,10.88,0,2.81-.27,5.31-.82,7.52-.88,3.47-2.27,5.98-4.18,7.54-.93,.74-1.92,1.25-2.97,1.52-1.04,.27-2.54,.41-4.49,.41V22.6c.78-.06,1.43-.08,1.96-.08,2.34,0,4.57,.48,6.67,1.43-.9-.82-1.73-1.37-2.51-1.64-1.11-.39-2.48-.58-4.09-.58-.78,0-1.7,.07-2.75,.21v30.88h-1.61V20.03c.82-.02,1.34-.03,1.58-.03m-7.31,.91v31.09l-4,3.07h12.43c2.1,0,3.71-.08,4.82-.24,2.81-.35,5.23-1.25,7.28-2.72,4.31-3.08,6.46-8.48,6.46-16.2,0-6.88-2.02-11.92-6.05-15.12-2.71-2.16-6.89-3.25-12.55-3.25h-11.52l3.13,3.37Zm-13.66,1.32c-.88-.35-2.28-.53-4.21-.53-.15,0-.68,0-1.58,.03v30.47l3.89,4.48h-13.98l.67,.79h14.91l-4.62-5.5-.12-29.39c.49-.05,.95-.08,1.37-.08,2.01,0,3.76,.49,5.26,1.46-.43-.9-.96-1.47-1.61-1.72m8.86-3.42c-1.33,1.39-2.81,4.34-4.45,8.86l.67,.56c.68-1.87,1.33-3.48,1.93-4.82,.68-1.52,1.49-2.86,2.43-4.01l-.58-.58Zm-36.47-1.26c1.83,3.45,3.19,6.57,4.06,9.36h.35c.04-.74,.11-1.41,.23-1.99,.55-2.3,1.63-3.71,3.25-4.24,1-.33,2.25-.5,3.77-.5,.92,0,1.87,.06,2.86,.18v1.43h-.26l-1.99-.03c-2.69,0-4.5,.77-5.41,2.31-.49,.8-.81,2.07-.96,3.8h.73c.19-2.4,.94-3.96,2.23-4.68,.84-.45,2.07-.67,3.68-.67,.47,0,1.13,0,1.99,.02v29.1l-4.09,3.42h13.34l-3.42-3.19V20.17c1.1-.07,2.09-.11,2.98-.11,2.54,0,4.36,.65,5.47,1.96,.66,.78,1.26,2.23,1.81,4.33l.29,.21c.62-2.03,1.27-3.64,1.96-4.83,1.19-2.11,1.97-3.5,2.34-4.18h-35.21Zm.35,28.52l-.91-.35c1.32,3.45,3.07,6.49,5.23,9.12l-.82,1.84h-30.94l.7,.79h30.56l1.28-2.63c-1.99-2.67-3.69-5.59-5.12-8.77m-24.22-24.8v30.5l-4.03,3.31h30.53c-.88-.84-1.95-2.53-3.22-5.06-1-2.07-1.81-4.01-2.46-5.85-.51,2.98-1.52,5.2-3.04,6.67-1.54,1.46-3.94,2.2-7.2,2.2-.8,0-1.63-.04-2.48-.12V22.19l2.84-2.9-.41-.64-3.16,3.19v31.06c-.17,.02-.28,.03-.32,.03-.21,0-.56-.04-1.02-.12h-.21V21.55l4.12-4.01h-13.98l4.03,3.72Zm-29.51,10.12c.43,1.91,1.38,4.2,2.86,6.87-1.38-.17-2.58-.26-3.6-.26-.78,0-1.51,.09-2.19,.26l5.2,13.77,5.26,4.65h-15.53l.56,.79h16.93l-6.52-5.76-4.88-12.96c.31-.02,.51-.03,.58-.03,1.07,0,2.88,.15,5.44,.44-1.75-3.14-2.83-5.55-3.22-7.23l-.91-.56Zm-15.47-5.59l-3.74,9.89c1.73,1.56,3.33,3.46,4.77,5.7-.45,.53-.79,.93-1.03,1.2-2.03-2.77-3.85-5.02-5.47-6.76l4.65-12.28,.82,2.25Zm4.51,11.91c-1.23,1.09-2.22,2.14-2.98,3.13-1.13-1.68-2.05-2.91-2.75-3.71-.82-.92-1.31-1.48-1.49-1.7l3.22-8.49,4,10.77Zm-10.27-20.15l3.1,3.34-3.98,10.94c-1-.96-1.99-1.74-2.98-2.37l-.47,.64c.86,.66,1.88,1.52,3.07,2.57l-.53,1.29c-.6-.45-1.14-.89-1.61-1.32-.93-.86-1.54-1.42-1.81-1.7-.18,.53-.51,1.29-1,2.31-.6,1.25-1.1,2.15-1.49,2.69,.68,.06,1.51,.25,2.49,.58,.93,.33,1.6,.67,1.99,1.02-1.77,6.18-4.01,10.84-6.73,13.98-1.23,1.34-2.85,2.52-4.86,3.54h14.63c-1.17-1.27-1.84-2-2.02-2.2-.93-1.11-1.4-2.44-1.4-4,0-1.08,.39-2.81,1.17-5.21,.76-2.37,1.28-3.89,1.55-4.53l1.29,1.34c-1.62,3.94-2.43,6.91-2.43,8.92,0,1.68,.54,3.26,1.61,4.74,.43,.57,1.11,1.41,2.02,2.54h-14.88l.58,.79h15.79c-1.38-1.75-2.22-2.83-2.51-3.22-1.19-1.58-1.78-3.23-1.78-4.94,0-2.11,.75-4.82,2.25-8.16,1.79,2.32,3.37,4.57,4.71,6.73,.55-.94,1.42-2.12,2.63-3.54,1.13-1.34,2.18-2.41,3.13-3.19l.56,1.29c-2.27,2.32-4.05,4.55-5.38,6.7l.67,.17c.45-.76,1.25-1.86,2.4-3.3,.95-1.17,1.8-2.13,2.54-2.87l3.25,8.54-4.03,3.4h14.77l-4.39-3.4-5.29-14.36c.86-.58,2.21-.88,4.04-.88,.27,0,.69,.02,1.25,.06-.43-.7-.9-1.71-1.4-3.01-.45-1.21-.76-2.19-.94-2.95-.13,.18-.51,.51-1.11,1-.68,.58-1.14,.97-1.37,1.14l-4.09-10.91,2.95-3.42-.76-.32-3.1,3.57,4.33,11.52-1.17,.64-4.8-12.75,3.04-3.45h-13.48Zm-19.42,4.68c-.88-.35-2.28-.53-4.21-.53-.15,0-.68,0-1.58,.03v30.47l3.89,4.48h-13.98l.67,.79h14.91l-4.62-5.5-.12-29.39c.49-.05,.95-.08,1.38-.08,2.01,0,3.76,.49,5.26,1.46-.43-.9-.97-1.47-1.61-1.72m8.86-3.42c-1.33,1.39-2.81,4.34-4.45,8.86l.67,.56c.68-1.87,1.32-3.48,1.93-4.82,.68-1.52,1.49-2.86,2.43-4.01l-.58-.58Zm-36.47-1.26c1.83,3.45,3.19,6.57,4.06,9.36h.35c.04-.74,.12-1.41,.23-1.99,.55-2.3,1.63-3.71,3.25-4.24,1-.33,2.26-.5,3.77-.5,.92,0,1.87,.06,2.87,.18v1.43h-.27l-1.99-.03c-2.69,0-4.49,.77-5.41,2.31-.49,.8-.81,2.07-.97,3.8h.73c.2-2.4,.94-3.96,2.23-4.68,.84-.45,2.07-.67,3.68-.67,.47,0,1.13,0,1.99,.02v29.1l-4.09,3.42h13.33l-3.42-3.19V20.17c1.09-.07,2.09-.11,2.98-.11,2.53,0,4.36,.65,5.47,1.96,.66,.78,1.27,2.23,1.81,4.33l.29,.21c.62-2.03,1.27-3.64,1.96-4.83,1.19-2.11,1.97-3.5,2.34-4.18h-35.21Zm-3.86,13.83c.43,1.91,1.39,4.2,2.86,6.87-1.38-.17-2.58-.26-3.59-.26-.78,0-1.51,.09-2.2,.26l5.2,13.77,5.27,4.65h-15.53l.56,.79h16.93l-6.52-5.76-4.88-12.96c.31-.02,.51-.03,.58-.03,1.07,0,2.88,.15,5.44,.44-1.75-3.14-2.83-5.55-3.22-7.23l-.91-.56Zm-15.47-5.59l-3.74,9.89c1.73,1.56,3.32,3.46,4.76,5.7-.45,.53-.79,.93-1.02,1.2-2.03-2.77-3.85-5.02-5.47-6.76l4.65-12.28,.82,2.25Zm4.51,11.91c-1.23,1.09-2.23,2.14-2.98,3.13-1.13-1.68-2.05-2.91-2.75-3.71-.82-.92-1.31-1.48-1.49-1.7l3.22-8.49,4.01,10.77Zm-10.27-20.15l3.1,3.34-3.98,10.94c-1-.96-1.99-1.74-2.98-2.37l-.47,.64c.86,.66,1.88,1.52,3.07,2.57l-.53,1.29c-.6-.45-1.14-.89-1.61-1.32-.94-.86-1.54-1.42-1.81-1.7-.17,.53-.51,1.29-.99,2.31-.6,1.25-1.11,2.15-1.49,2.69,.68,.06,1.51,.25,2.48,.58,.94,.33,1.6,.67,1.99,1.02-1.77,6.18-4.02,10.84-6.73,13.98-1.22,1.34-2.85,2.52-4.85,3.54h14.62c-1.17-1.27-1.84-2-2.02-2.2-.94-1.11-1.4-2.44-1.4-4,0-1.08,.39-2.81,1.17-5.21,.76-2.37,1.27-3.89,1.55-4.53l1.28,1.34c-1.62,3.94-2.43,6.91-2.43,8.92,0,1.68,.54,3.26,1.61,4.74,.43,.57,1.1,1.41,2.02,2.54h-14.88l.58,.79h15.79c-1.38-1.75-2.22-2.83-2.51-3.22-1.19-1.58-1.78-3.23-1.78-4.94,0-2.11,.75-4.82,2.25-8.16,1.79,2.32,3.37,4.57,4.71,6.73,.55-.94,1.42-2.12,2.63-3.54,1.13-1.34,2.18-2.41,3.13-3.19l.56,1.29c-2.26,2.32-4.05,4.55-5.38,6.7l.67,.17c.45-.76,1.25-1.86,2.4-3.3,.96-1.17,1.8-2.13,2.55-2.87l3.25,8.54-4.04,3.4h14.77l-4.39-3.4-5.29-14.36c.86-.58,2.2-.88,4.03-.88,.27,0,.69,.02,1.26,.06-.43-.7-.9-1.71-1.4-3.01-.45-1.21-.76-2.19-.94-2.95-.14,.18-.51,.51-1.11,1-.68,.58-1.14,.97-1.38,1.14l-4.09-10.91,2.95-3.42-.76-.32-3.1,3.57,4.33,11.52-1.17,.64-4.8-12.75,3.04-3.45h-13.48Zm-34.92,39.92c6.4,0,11.1-1.05,14.1-3.16,4.96-3.51,7.43-9.55,7.43-18.13,0-7.29-2.07-12.23-6.2-14.83,.2,.23,.55,.63,1.06,1.19,1.09,1.21,1.98,2.52,2.66,3.92,1.17,2.38,1.75,5.62,1.75,9.71s-.52,7.5-1.55,10.09c-1.66,4.23-4.55,7.19-8.66,8.89-2.45,1.02-5.98,1.52-10.59,1.52h-10.7l.44,.79h10.27Zm-.76-37.46c2.44,0,4.55,.31,6.32,.94,1.95,.7,3.48,2.04,4.59,4,1.54,2.81,2.31,6.43,2.31,10.88,0,2.81-.27,5.31-.82,7.52-.88,3.47-2.27,5.98-4.18,7.54-.94,.74-1.92,1.25-2.97,1.52-1.04,.27-2.54,.41-4.49,.41V22.6c.78-.06,1.44-.08,1.96-.08,2.34,0,4.56,.48,6.67,1.43-.9-.82-1.73-1.37-2.51-1.64-1.12-.39-2.48-.58-4.09-.58-.78,0-1.7,.07-2.75,.21v30.88h-1.61V20.03c.82-.02,1.35-.03,1.58-.03m-7.31,.91v31.09l-4,3.07h12.43c2.11,0,3.72-.08,4.83-.24,2.81-.35,5.23-1.25,7.28-2.72,4.31-3.08,6.46-8.48,6.46-16.2,0-6.88-2.02-11.92-6.05-15.12-2.71-2.16-6.89-3.25-12.55-3.25h-11.52l3.13,3.37Zm-7.63-2.28l-3.31,3.28v30.35l4.01,4.42h-14.22l.73,.79h15.21l-4.92-5.5V22.16l2.98-2.95-.5-.58Zm-10.62,2.57v30.5l-4.06,3.37h13.63l-3.69-3.1V21.52l3.92-3.98h-13.86l4.06,3.66Zm-8.77,13.28l-3.37,3.39v14.33l4.04,4.48h-18.22l-1.67,.03c-2.16,0-3.91-.29-5.23-.88h-.61c1.48,1.11,3.12,1.67,4.92,1.67,.35,0,.81,0,1.37-.03,2.53-.03,5.13-.05,7.78-.05,3.12,0,7.56,.02,13.31,.05l-4.85-5.58v-13.72l3.01-3.01-.47-.67Zm-10.65-9.8c-1.71-2.26-3.94-3.39-6.67-3.39s-5.04,1.05-6.76,3.16c-2.11,2.57-3.16,6.31-3.16,11.23,0,5.65,.85,9.76,2.54,12.34,.94,1.4,2.22,2.58,3.83,3.54v-.32c-2.36-1.89-3.92-4.14-4.68-6.76-.53-1.87-.79-4.54-.79-7.99,0-2.79,.25-5.27,.76-7.46,.35-1.48,1.06-2.84,2.11-4.06,1.62-1.91,3.7-2.86,6.26-2.86,1.42,0,2.86,.43,4.33,1.29,.57,.33,1.3,.82,2.22,1.46v-.18Zm8.69-4.62l-5.03,9.85,.7,.32,5-9.82-.67-.35Zm-4.8-.56c-.82,0-1.66-.12-2.51-.35l-2.72-.73c-2.57-.7-4.9-1.05-6.99-1.05-2.56,0-5.09,.64-7.6,1.93-3.28,1.7-5.71,4.22-7.29,7.58-1.36,2.96-2.05,6.18-2.05,9.65,0,2.55,.39,4.95,1.17,7.19,1.21,3.43,3.19,6.18,5.94,8.25,2.28,1.73,4.62,2.74,7.02,3.01,.43,.04,2.35,.07,5.76,.09h14.94l-3.75-3.22v-14.42l4.04-3.95h-19.31c-1.28,0-1.93-.13-1.93-.41,0-.12,.12-.21,.35-.27,.57-.11,.9-.21,.99-.29,.41-.33,.61-.78,.61-1.34,0-.39-.11-.75-.35-1.08-.41-.53-.95-.79-1.61-.79-.62,0-1.17,.28-1.64,.82-.53,.6-.79,1.31-.79,2.13,0,1.48,.79,2.45,2.37,2.89,.7,.2,1.8,.29,3.31,.29h8.13v1.58h-7.28c-1.71,0-2.9-.09-3.57-.26-.6-.13-1.25-.48-1.96-1.02v.73c.58,.55,1.19,.91,1.81,1.08,.76,.22,1.97,.32,3.62,.32h7.37v15.18h-4.71c-3.37,0-6.08-.69-8.13-2.08-3.82-2.6-5.73-7.49-5.73-14.68,0-2.98,.36-5.71,1.08-8.19,.51-1.79,1.42-3.42,2.75-4.88,2.01-2.22,4.55-3.34,7.63-3.34,1.66,0,3.18,.37,4.56,1.12,1.19,.64,2.14,1.52,2.84,2.63,.96,1.46,1.57,3.36,1.84,5.7l5.47-10.76c-1.28,.62-2.52,.94-3.71,.94m-32.99-.88l-3.3,3.28v30.35l4,4.42h-14.22l.73,.79h15.21l-4.91-5.5V22.16l2.98-2.95-.5-.58Zm-10.61,2.57v30.5l-4.07,3.37h13.63l-3.68-3.1V21.52l3.92-3.98h-13.86l4.07,3.66Zm-28.17,36.26c6.4,0,11.1-1.05,14.1-3.16,4.96-3.51,7.43-9.55,7.43-18.13,0-7.29-2.07-12.23-6.2-14.83,.2,.23,.55,.63,1.06,1.19,1.09,1.21,1.98,2.52,2.66,3.92,1.17,2.38,1.75,5.62,1.75,9.71s-.52,7.5-1.55,10.09c-1.66,4.23-4.55,7.19-8.66,8.89-2.45,1.02-5.98,1.52-10.59,1.52h-10.7l.44,.79h10.27Zm-.76-37.46c2.44,0,4.55,.31,6.32,.94,1.95,.7,3.48,2.04,4.59,4,1.54,2.81,2.31,6.43,2.31,10.88,0,2.81-.27,5.31-.82,7.52-.88,3.47-2.27,5.98-4.18,7.54-.94,.74-1.92,1.25-2.97,1.52-1.04,.27-2.54,.41-4.49,.41V22.6c.78-.06,1.44-.08,1.96-.08,2.34,0,4.56,.48,6.67,1.43-.9-.82-1.73-1.37-2.51-1.64-1.12-.39-2.48-.58-4.09-.58-.78,0-1.7,.07-2.75,.21v30.88h-1.61V20.03c.82-.02,1.35-.03,1.58-.03m-7.31,.91v31.09l-4,3.07h12.43c2.11,0,3.72-.08,4.83-.24,2.81-.35,5.23-1.25,7.28-2.72,4.31-3.08,6.46-8.48,6.46-16.2,0-6.88-2.02-11.92-6.05-15.12-2.71-2.16-6.89-3.25-12.55-3.25h-11.52l3.13,3.37Z"/></g></g></svg>