<?xml version="1.0" encoding="UTF-8"?><svg id="Camada_2" xmlns="http://www.w3.org/2000/svg" viewBox="0 0 46.98 49.53"><defs><style>.cls-1{fill:#fff;}</style></defs><g id="Camada_1-2"><path class="cls-1" d="M46.86,22.1h-1.8v-.07H22.57v9.92h12.01c-.15,.33-.28,.67-.45,.98-1.27,2.34-3.05,4.13-5.34,5.38-2.29,1.25-4.99,1.88-8.11,1.88H10.88V9.34h9.81c3.11,0,5.82,.63,8.11,1.88,1,.55,1.89,1.21,2.69,1.96h13.01c-.24-.5-.51-.99-.79-1.47-2.18-3.7-5.2-6.58-9.08-8.63C30.76,1.02,26.29,0,21.22,0H0V49.53H21.22c5.07,0,9.54-1.03,13.41-3.08,3.87-2.05,6.9-4.93,9.08-8.63,2.18-3.7,3.27-8.05,3.27-13.05,0-.91-.05-1.8-.12-2.67"/></g></svg>