<?xml version="1.0" encoding="UTF-8"?><svg id="Camada_2" xmlns="http://www.w3.org/2000/svg" xmlns:xlink="http://www.w3.org/1999/xlink" viewBox="0 0 330.99 50.45"><defs><style>.cls-1{fill:none;}.cls-2{clip-path:url(#clippath);}.cls-3{fill:#fff;}</style><clipPath id="clippath"><rect class="cls-1" width="330.99" height="50.45"/></clipPath></defs><g id="Camada_1-2"><g class="cls-2"><path class="cls-3" d="M46.86,22.1h-1.8v-.07H22.57v9.92h12.01c-.15,.33-.28,.67-.45,.98-1.27,2.34-3.05,4.13-5.34,5.38-2.29,1.25-4.99,1.88-8.11,1.88H10.88V9.34h9.81c3.11,0,5.82,.63,8.11,1.88,1,.55,1.89,1.21,2.69,1.96h13.01c-.24-.5-.51-.99-.79-1.47-2.18-3.7-5.2-6.58-9.08-8.63C30.76,1.03,26.29,0,21.22,0H0V49.53H21.22c5.07,0,9.54-1.03,13.41-3.08,3.87-2.05,6.9-4.93,9.08-8.63,2.18-3.7,3.27-8.05,3.27-13.05,0-.91-.05-1.8-.12-2.67"/><path class="cls-3" d="M238.72,46.85h1.31v-12.43h-1.31v12.43Zm-7.08-1.04c-1.24,0-2.03-.65-2.03-1.63s.77-1.44,2.24-1.44h2.75v1.07c-.33,1.26-1.47,1.99-2.96,1.99m4.25,1.04l-.02-5.83c-.02-1.88-1.22-3.03-3.4-3.03-1.51,0-2.46,.44-3.6,1.19l.55,.92c.92-.65,1.83-1.02,2.8-1.02,1.56,0,2.36,.79,2.36,2.08v.55h-2.9c-2.08,.02-3.3,.99-3.3,2.53s1.17,2.66,3,2.66c1.41,0,2.53-.47,3.23-1.42v1.37h1.27Zm-11.05,0h1.29v-8.81h-1.29v8.81Zm.64-12.23c-.49,0-.85,.37-.85,.89s.37,.89,.85,.89,.85-.39,.85-.89-.37-.89-.85-.89m-3.7,5.58l.72-.9c-.8-.82-1.98-1.31-3.4-1.31-2.55,0-4.37,1.84-4.37,4.45s1.81,4.46,4.37,4.46c1.52,0,2.75-.57,3.53-1.52l-.75-.77c-.62,.74-1.57,1.14-2.73,1.14-1.82,0-3.13-1.34-3.13-3.3s1.31-3.28,3.13-3.28c1.07,0,1.96,.39,2.63,1.04m-10.92-.2v-1.96h-1.31v8.81h1.31v-4.69c.15-1.78,1.31-2.93,3.17-2.9v-1.27c-1.49,.02-2.58,.72-3.17,2.01m-10.58,1.89c.18-1.71,1.39-2.81,3.08-2.81s2.86,1.1,2.95,2.81h-6.03Zm3.08-3.9c-2.56,.02-4.37,1.83-4.37,4.45s1.79,4.46,4.39,4.46c1.47,0,2.71-.54,3.55-1.46l-.72-.75c-.69,.72-1.64,1.12-2.73,1.12-1.73,0-2.98-1.14-3.2-2.88h7.2c.13-2.98-1.27-4.94-4.12-4.94m-9.5,0c-1.69,.02-2.93,.75-3.48,2.29-.37-1.46-1.51-2.29-3.17-2.29-1.59,.02-2.78,.67-3.37,2.04v-1.99h-1.29v8.81h1.29v-4.34c0-1.91,1.09-3.23,2.9-3.28,1.54,0,2.45,.94,2.45,2.53v5.09h1.32v-4.34c0-1.91,1.06-3.23,2.88-3.28,1.52,0,2.45,.94,2.45,2.53v5.09h1.31v-5.43c0-2.14-1.22-3.43-3.28-3.43m-17.9,1.16c1.84,0,3.17,1.36,3.17,3.3s-1.32,3.32-3.17,3.32-3.16-1.34-3.16-3.32,1.31-3.3,3.16-3.3m0-1.16c-2.63,0-4.47,1.83-4.47,4.44s1.84,4.47,4.47,4.47,4.47-1.84,4.47-4.47-1.86-4.44-4.47-4.44m-6.23,2.21l.72-.9c-.8-.82-1.98-1.31-3.4-1.31-2.55,0-4.37,1.84-4.37,4.45s1.81,4.46,4.37,4.46c1.52,0,2.75-.57,3.53-1.52l-.75-.77c-.62,.74-1.57,1.14-2.73,1.14-1.82,0-3.13-1.34-3.13-3.3s1.31-3.28,3.13-3.28c1.07,0,1.96,.39,2.63,1.04m-17.62-1.06c1.84,0,3.17,1.36,3.17,3.3s-1.32,3.32-3.17,3.32-3.16-1.34-3.16-3.32,1.31-3.3,3.16-3.3m0-1.16c-2.63,0-4.47,1.83-4.47,4.44s1.84,4.47,4.47,4.47,4.47-1.84,4.47-4.47-1.86-4.44-4.47-4.44m-10.58,7.82c-1.24,0-2.03-.65-2.03-1.63s.77-1.44,2.24-1.44h2.75v1.07c-.34,1.26-1.47,1.99-2.96,1.99m4.25,1.04l-.02-5.83c-.02-1.88-1.22-3.03-3.4-3.03-1.51,0-2.46,.44-3.6,1.19l.55,.92c.92-.65,1.82-1.02,2.8-1.02,1.56,0,2.36,.79,2.36,2.08v.55h-2.9c-2.08,.02-3.3,.99-3.3,2.53s1.17,2.66,3,2.66c1.41,0,2.53-.47,3.23-1.42v1.37h1.27Zm-4.49-11.47c.67,0,1.06,1.02,2.03,1.02,.9,0,1.39-.65,1.39-1.88h-.87c0,.57-.25,.89-.72,.89-.65,0-1.11-1.02-2.03-1.02s-1.39,.65-1.39,1.87h.87c0-.57,.25-.89,.72-.89m-3.99,10l-.75-.77c-.62,.74-1.57,1.14-2.73,1.14-1.83,0-3.13-1.34-3.13-3.3s1.31-3.28,3.13-3.28c1.07,0,1.96,.39,2.63,1.04l.72-.9c-.8-.82-1.98-1.31-3.4-1.31-2.54,0-4.37,1.84-4.37,4.45s1.62,4.27,3.99,4.44l-.57,1.32c.15-.02,.38-.05,.55-.05,.54,0,.84,.34,.84,.72,.02,.42-.33,.8-.89,.8-.33,0-.72-.13-.99-.34l-.29,.69c.33,.25,.85,.42,1.36,.42,.94,0,1.64-.6,1.62-1.51,0-.72-.5-1.17-1.19-1.26l.35-.8c1.34-.1,2.4-.64,3.12-1.51m-14.02,.44c-1.24,0-2.03-.65-2.03-1.63s.77-1.44,2.24-1.44h2.75v1.07c-.33,1.26-1.47,1.99-2.96,1.99m4.25,1.04l-.02-5.83c-.02-1.88-1.22-3.03-3.4-3.03-1.51,0-2.46,.44-3.6,1.19l.55,.92c.92-.65,1.83-1.02,2.8-1.02,1.56,0,2.36,.79,2.36,2.08v.55h-2.9c-2.08,.02-3.3,.99-3.3,2.53s1.17,2.66,3,2.66c1.41,0,2.53-.47,3.23-1.42v1.37h1.27Zm-12.76-8.86c-1.69,.02-2.93,.75-3.48,2.29-.37-1.46-1.51-2.29-3.17-2.29-1.59,.02-2.78,.67-3.37,2.04v-1.99h-1.29v8.81h1.29v-4.34c0-1.91,1.09-3.23,2.9-3.28,1.54,0,2.44,.94,2.44,2.53v5.09h1.32v-4.34c0-1.91,1.06-3.23,2.88-3.28,1.52,0,2.44,.94,2.44,2.53v5.09h1.31v-5.43c0-2.14-1.22-3.43-3.28-3.43m-17.9,1.16c1.84,0,3.17,1.36,3.17,3.3s-1.32,3.32-3.17,3.32-3.17-1.34-3.17-3.32,1.31-3.3,3.17-3.3m0-1.16c-2.63,0-4.47,1.83-4.47,4.44s1.84,4.47,4.47,4.47,4.47-1.84,4.47-4.47-1.86-4.44-4.47-4.44m-5.63,7.25c-.49,.28-.96,.44-1.41,.45-.75,0-1.17-.43-1.17-1.51v-4.86h2.8v-1.02h-2.8v-2.31h-1.29v2.31h-1.27v1.02h1.27v5.08c0,1.74,.96,2.51,2.24,2.49,.7,0,1.37-.23,1.99-.65l-.37-1.01Zm-8.51-7.2v4.32c0,1.91-1.07,3.25-2.9,3.28-1.52,0-2.45-.94-2.45-2.51v-5.09h-1.31v5.43c0,2.13,1.24,3.43,3.3,3.43,1.59-.02,2.76-.67,3.35-2.04v1.99h1.31v-8.81h-1.31Zm-15.98,4.57l2.63-6.03,2.66,6.03h-5.29Zm7.15,4.24h1.46l-5.24-11.72h-1.39l-5.26,11.72h1.42l1.31-3h6.38l1.32,3Z"/><path class="cls-3" d="M324.74,28.09c0,1.7,1.4,3.11,3.11,3.11s3.14-1.4,3.14-3.11-1.44-3.15-3.14-3.15-3.11,1.44-3.11,3.15m-17.05-6.33l3.71-8.34h.11l3.79,8.34h-7.62Zm-8.11,9.06h3.3c.61,0,.95-.38,1.1-.76l1.86-4.09h11.33l1.86,4.09c.27,.53,.53,.76,1.1,.76h3.3c.57,0,.87-.49,.65-.99l-11.67-25.5c-.11-.23-.27-.42-.65-.42h-.38c-.34,0-.53,.19-.64,.42l-11.78,25.5c-.23,.49,.07,.99,.64,.99m-19.67-4.62V8.87h4.32c4.93,0,8.53,3.71,8.53,8.64s-3.6,8.68-8.53,8.68h-4.32Zm-4.89,3.9c0,.38,.3,.72,.68,.72h8.98c7.31,0,13.3-5.95,13.3-13.3s-5.99-13.22-13.3-13.22h-8.98c-.38,0-.68,.34-.68,.72V30.09Zm-15.04,0c0,.38,.34,.72,.72,.72h3.52c.38,0,.72-.34,.72-.72V8.84h5.8c.42,0,.72-.34,.72-.72v-3.11c0-.38-.3-.72-.72-.72h-16.56c-.42,0-.72,.34-.72,.72v3.11c0,.38,.3,.72,.72,.72h5.8V30.09Zm-20.8,0c0,.38,.3,.72,.72,.72h13.87c.42,0,.72-.34,.72-.72v-3.11c0-.38-.3-.72-.72-.72h-9.66V5.01c0-.38-.34-.72-.72-.72h-3.49c-.42,0-.72,.34-.72,.72V30.09Zm-25.39-8.34l3.71-8.34h.11l3.79,8.34h-7.62Zm-8.11,9.06h3.3c.61,0,.95-.38,1.1-.76l1.86-4.09h11.33l1.86,4.09c.26,.53,.53,.76,1.1,.76h3.3c.57,0,.87-.49,.64-.99l-11.67-25.5c-.11-.23-.26-.42-.64-.42h-.38c-.34,0-.53,.19-.64,.42l-11.79,25.5c-.23,.49,.08,.99,.64,.99m-10.8-.72c0,.38,.34,.72,.72,.72h3.52c.38,0,.72-.34,.72-.72V8.84h5.8c.42,0,.72-.34,.72-.72v-3.11c0-.38-.3-.72-.72-.72h-16.56c-.42,0-.72,.34-.72,.72v3.11c0,.38,.3,.72,.72,.72h5.8V30.09Zm-21.6-8.34l3.71-8.34h.11l3.79,8.34h-7.62Zm-8.11,9.06h3.3c.61,0,.95-.38,1.1-.76l1.86-4.09h11.33l1.86,4.09c.26,.53,.53,.76,1.1,.76h3.3c.57,0,.87-.49,.64-.99l-11.67-25.5c-.11-.23-.27-.42-.64-.42h-.38c-.34,0-.53,.19-.64,.42l-11.79,25.5c-.23,.49,.08,.99,.65,.99m-19.67-4.62V8.87h4.32c4.93,0,8.53,3.71,8.53,8.64s-3.6,8.68-8.53,8.68h-4.32Zm-4.89,3.9c0,.38,.3,.72,.68,.72h8.98c7.31,0,13.3-5.95,13.3-13.3s-5.99-13.22-13.3-13.22h-8.98c-.38,0-.68,.34-.68,.72V30.09Zm-11.48,0c0,.38,.34,.72,.72,.72h3.52c.38,0,.72-.34,.72-.72V5.01c0-.38-.34-.72-.72-.72h-3.52c-.38,0-.72,.34-.72,.72V30.09Zm-28.49-12.5c0,7.58,6.06,13.57,13.6,13.57,5.49,0,9.4-2.46,9.4-2.46,.15-.11,.3-.3,.3-.61v-9.7c0-.38-.3-.72-.68-.72h-7.27c-.42,0-.72,.3-.72,.72v2.99c0,.38,.3,.68,.72,.68h3.03v3.22c-.76,.3-2.39,.95-4.51,.95-4.77,0-8.53-3.98-8.53-8.68s3.75-8.79,8.49-8.79c2.08,0,4.09,.76,5.72,2.2,.34,.3,.68,.3,.99,0l2.35-2.46c.3-.3,.27-.76-.04-1.06-2.58-2.2-5.84-3.52-9.25-3.52-7.54,0-13.6,6.1-13.6,13.68m-9.59,12.5c0,.38,.34,.72,.72,.72h3.52c.38,0,.72-.34,.72-.72V5.01c0-.38-.34-.72-.72-.72h-3.52c-.38,0-.72,.34-.72,.72V30.09Zm-22.7-3.9V8.87h4.32c4.93,0,8.53,3.71,8.53,8.64s-3.6,8.68-8.53,8.68h-4.32Zm-4.89,3.9c0,.38,.3,.72,.68,.72h8.98c7.31,0,13.3-5.95,13.3-13.3s-5.99-13.22-13.3-13.22h-8.98c-.38,0-.68,.34-.68,.72V30.09Z"/></g><rect class="cls-3" x="53.99" y=".5" width="2.48" height="48.53"/></g></svg>