<?xml version="1.0" encoding="UTF-8"?><svg id="Camada_2" xmlns="http://www.w3.org/2000/svg" xmlns:xlink="http://www.w3.org/1999/xlink" viewBox="0 0 368.43 463"><defs><style>.cls-1{fill:#1a5632;}.cls-2{clip-path:url(#clippath);}.cls-3{fill:none;}</style><clipPath id="clippath"><rect class="cls-3" width="368.43" height="463"/></clipPath></defs><g id="Camada_1-2"><g class="cls-2"><path class="cls-1" d="M71.27,18.49l.83,242.96,11.94-.06-.8-228.85c7.78-1.03,14.59-1.57,20.35-1.57,12-.06,22.11,1.37,30.38,4.22,5.78,1.99,12,6.01,18.66,12.08-15.62-7.04-32.12-10.52-49.44-10.46-3.9,0-8.75,.26-14.53,.71l.8,223.86c14.45-.06,25.53-1.11,33.25-3.16,7.72-2.05,15.05-5.81,21.97-11.34,14.11-11.6,24.36-30.29,30.78-56.02,3.99-16.33,5.96-34.91,5.87-55.71-.11-32.94-5.9-59.81-17.38-80.56-8.29-14.56-19.66-24.42-34.14-29.58-13.17-4.59-28.78-6.84-46.85-6.78-1.71,.03-5.61,.11-11.68,.26M13.51,296.1l-3.28-5.84,79.3-.26c34.11-.11,60.24-3.96,78.42-11.54,30.43-12.68,51.75-34.71,63.92-66.11,7.61-19.23,11.34-44.17,11.23-74.83-.11-30.32-4.53-54.28-13.25-71.9-5.1-10.37-11.71-20.03-19.83-28.98-3.76-4.16-6.38-7.12-7.81-8.83,30.69,19.09,46.14,55.68,46.31,109.71,.23,63.57-17.95,108.43-54.57,134.56-22.2,15.67-56.99,23.59-104.38,23.77l-76.06,.26ZM5.53,.31L90.91,.03c41.92-.17,72.92,7.75,93.07,23.71,30.01,23.59,45.08,60.9,45.25,111.9,.2,57.22-15.62,97.29-47.47,120.22-15.13,10.89-33.08,17.67-53.89,20.35-8.24,1.2-20.15,1.8-35.76,1.85L0,278.38l29.61-22.85-.8-230.36L5.53,.31Z"/><path class="cls-1" d="M340.81,187.69l-36.82,72.95-5.21-2.37,37.02-73.15,5.02,2.56Zm13.39,109.2l-22.26,22.4,.34,101.65,36.13,41.26c-42.63-.14-75.49-.17-98.6-.09-19.66,.06-38.87,.28-57.65,.63-4.22,.17-7.61,.26-10.2,.26-13.28,.06-25.45-4.02-36.45-12.22h4.56c9.83,4.27,22.77,6.41,38.81,6.35l12.34-.26,135.01-.48-30.01-33.06-.37-106.18,24.82-25.25,3.51,4.99Zm-82.64-76c-6.81-4.73-12.31-8.32-16.5-10.77-10.86-6.33-21.57-9.46-32.11-9.43-18.92,.06-34.37,7.21-46.31,21.4-7.75,9.12-12.94,19.21-15.5,30.18-3.7,16.21-5.5,34.62-5.44,55.28,.09,25.59,2.11,45.28,6.07,59.16,5.7,19.35,17.33,35.99,34.85,49.93v2.39c-12.03-7.04-21.51-15.76-28.47-26.13-12.65-19.04-19.04-49.47-19.18-91.39-.14-36.42,7.58-64.17,23.11-83.29,12.65-15.64,29.32-23.51,49.98-23.59,20.23-.06,36.73,8.26,49.5,24.96v1.31Zm56.19-46.79l-40.24,79.9c-2.11-17.33-6.7-31.4-13.82-42.23-5.21-8.21-12.25-14.68-21.09-19.43-10.29-5.44-21.54-8.15-33.82-8.12-22.85,.09-41.66,8.41-56.48,24.91-9.8,10.89-16.56,22.97-20.26,36.28-5.27,18.38-7.86,38.61-7.81,60.73,.2,53.29,14.48,89.51,42.86,108.63,15.22,10.2,35.31,15.27,60.3,15.19l34.91-.11-.4-112.5-54.6,.2c-12.31,.06-21.26-.71-26.9-2.28-4.62-1.28-9.12-3.96-13.45-7.98l-.03-5.41c5.21,4.02,10.06,6.53,14.53,7.52,4.93,1.28,13.74,1.91,26.47,1.85l53.94-.17-.03-11.71-60.24,.23c-11.14,.03-19.29-.66-24.51-2.08-11.71-3.31-17.58-10.43-17.64-21.4-.03-6.07,1.91-11.37,5.81-15.84,3.45-4.05,7.47-6.1,12.11-6.13,4.9,0,8.89,1.94,11.94,5.81,1.74,2.45,2.62,5.13,2.62,8.01,0,4.19-1.48,7.52-4.53,10-.71,.57-3.16,1.31-7.35,2.19-1.74,.43-2.59,1.08-2.59,1.94,0,2.02,4.79,3.02,14.3,2.99l143.05-.48-29.81,29.35,.37,106.83,27.84,23.77-110.76,.37c-25.28-.06-39.52-.23-42.69-.48-17.78-1.97-35.14-9.35-52.09-22.14-20.43-15.25-35.16-35.56-44.2-60.98-5.84-16.58-8.81-34.34-8.86-53.26-.09-25.73,4.87-49.58,14.9-71.58,11.63-24.91,29.55-43.66,53.77-56.34,18.61-9.57,37.39-14.42,56.31-14.48,15.44-.06,32.74,2.48,51.81,7.61l20.18,5.36c6.35,1.71,12.6,2.54,18.66,2.54,8.81-.03,17.98-2.39,27.5-7.04"/></g></g></svg>