<?xml version="1.0" encoding="UTF-8"?><svg id="Camada_2" xmlns="http://www.w3.org/2000/svg" viewBox="0 0 144.11 187.91"><defs><style>.cls-1{fill:#31a29f;}.cls-2{fill:#35a29f;}</style></defs><g id="Layer_2"><path class="cls-1" d="M130.75,40.48H13.36c-7.37,0-13.36-5.99-13.36-13.36V3C0,1.34,1.34,0,3,0H141.11c1.66,0,3,1.34,3,3V27.11c0,7.37-5.99,13.36-13.36,13.36ZM6,6V27.11c0,4.06,3.3,7.36,7.36,7.36h117.39c4.06,0,7.36-3.3,7.36-7.36V6H6Z"/><path class="cls-1" d="M41.11,69.08H24.61c-1.66,0-3-1.34-3-3v-28.61c0-1.66,1.34-3,3-3h16.5c1.66,0,3,1.34,3,3v28.61c0,1.66-1.34,3-3,3Zm-13.5-6h10.5v-22.61h-10.5v22.61Z"/><path class="cls-1" d="M119.5,69.08h-16.5c-1.66,0-3-1.34-3-3v-28.61c0-1.66,1.34-3,3-3h16.5c1.66,0,3,1.34,3,3v28.61c0,1.66-1.34,3-3,3Zm-13.5-6h10.5v-22.61h-10.5v22.61Z"/><path class="cls-1" d="M129.08,187.91H15.03c-4.56,0-8.27-3.71-8.27-8.27V71.36c0-4.56,3.71-8.27,8.27-8.27h114.06c4.56,0,8.27,3.71,8.27,8.27v108.28c0,4.56-3.71,8.27-8.27,8.27ZM15.03,69.08c-1.25,0-2.27,1.02-2.27,2.27v108.28c0,1.25,1.02,2.27,2.27,2.27h114.06c1.25,0,2.27-1.02,2.27-2.27V71.36c0-1.25-1.02-2.27-2.27-2.27H15.03Z"/><path class="cls-1" d="M72.06,171.76c-25.51,0-46.26-20.75-46.26-46.26s20.75-46.26,46.26-46.26,46.26,20.75,46.26,46.26-20.75,46.26-46.26,46.26Zm0-86.52c-22.2,0-40.26,18.06-40.26,40.26s18.06,40.26,40.26,40.26,40.26-18.06,40.26-40.26-18.06-40.26-40.26-40.26Z"/><path class="cls-1" d="M72.06,97.14c-1.66,0-3-1.34-3-3v-11.82c0-1.66,1.34-3,3-3s3,1.34,3,3v11.82c0,1.66-1.34,3-3,3Z"/><path class="cls-1" d="M94.23,106.32c-.77,0-1.54-.29-2.12-.88-1.17-1.17-1.17-3.07,0-4.24l8.36-8.36c1.17-1.17,3.07-1.17,4.24,0,1.17,1.17,1.17,3.07,0,4.24l-8.36,8.36c-.59,.59-1.35,.88-2.12,.88Z"/><path class="cls-1" d="M115.24,128.5h-11.82c-1.66,0-3-1.34-3-3s1.34-3,3-3h11.82c1.66,0,3,1.34,3,3s-1.34,3-3,3Z"/><path class="cls-1" d="M102.59,159.03c-.77,0-1.54-.29-2.12-.88l-8.36-8.36c-1.17-1.17-1.17-3.07,0-4.24,1.17-1.17,3.07-1.17,4.24,0l8.36,8.36c1.17,1.17,1.17,3.07,0,4.24-.59,.59-1.35,.88-2.12,.88Z"/><path class="cls-1" d="M72.06,171.68c-1.66,0-3-1.34-3-3v-11.82c0-1.66,1.34-3,3-3s3,1.34,3,3v11.82c0,1.66-1.34,3-3,3Z"/><path class="cls-1" d="M41.52,159.03c-.77,0-1.54-.29-2.12-.88-1.17-1.17-1.17-3.07,0-4.24l8.36-8.36c1.17-1.17,3.07-1.17,4.24,0,1.17,1.17,1.17,3.07,0,4.24l-8.36,8.36c-.59,.59-1.35,.88-2.12,.88Z"/><path class="cls-1" d="M40.7,128.5h-11.82c-1.66,0-3-1.34-3-3s1.34-3,3-3h11.82c1.66,0,3,1.34,3,3s-1.34,3-3,3Z"/><path class="cls-1" d="M49.88,106.32c-.77,0-1.54-.29-2.12-.88l-8.36-8.36c-1.17-1.17-1.17-3.07,0-4.24,1.17-1.17,3.07-1.17,4.24,0l8.36,8.36c1.17,1.17,1.17,3.07,0,4.24-.59,.59-1.35,.88-2.12,.88Z"/><circle class="cls-2" cx="72.06" cy="125.5" r="8.01"/><path class="cls-1" d="M72.06,128.5c-1.66,0-3-1.34-3-3v-15.27c0-1.66,1.34-3,3-3s3,1.34,3,3v15.27c0,1.66-1.34,3-3,3Z"/></g></svg>