<?xml version="1.0" encoding="UTF-8"?><svg id="Camada_2" xmlns="http://www.w3.org/2000/svg" viewBox="0 0 190.17 186.66"><defs><style>.cls-1{fill:#35a29f;}</style></defs><g id="Layer_2"><g><path class="cls-1" d="M187.1,156.6h-13.5v-46.25c0-1.69-1.37-3.07-3.07-3.07s-3.07,1.37-3.07,3.07v46.25H22.7V66.32c0-4.9,3.99-8.9,8.9-8.9h12.88c1.69,0,3.07-1.37,3.07-3.07s-1.37-3.07-3.07-3.07h-12.88c-8.29,0-15.03,6.74-15.03,15.03v90.28H3.07c-1.69,0-3.07,1.37-3.07,3.07v11.96c0,8.29,6.74,15.03,15.03,15.03H175.14c8.29,0,15.03-6.74,15.03-15.03v-11.96c0-1.69-1.37-3.07-3.07-3.07Zm-3.07,15.03c0,4.9-3.99,8.89-8.89,8.89H15.03c-4.9,0-8.9-3.99-8.9-8.89v-8.89H184.03v8.89Z"/><path class="cls-1" d="M36.19,90.64c-1.69,0-3.07,1.37-3.07,3.07v50.32c0,1.69,1.37,3.07,3.07,3.07h104.66c1.69,0,3.07-1.37,3.07-3.07s-1.37-3.07-3.07-3.07H39.26v-47.25c0-1.69-1.37-3.07-3.07-3.07Z"/><path class="cls-1" d="M102.84,168.56h-24.71c-1.69,0-3.07,1.37-3.07,3.07s1.37,3.07,3.07,3.07h24.71c1.69,0,3.07-1.37,3.07-3.07s-1.37-3.07-3.07-3.07Z"/><path class="cls-1" d="M168.25,0H79.89c-12.09,0-21.92,9.83-21.92,21.92v53.1c0,12.09,9.83,21.92,21.92,21.92h2.04l10.64,19.35c.54,.98,1.57,1.59,2.69,1.59s2.15-.61,2.69-1.59l10.64-19.35h59.66c12.09,0,21.92-9.83,21.92-21.92V21.92c0-12.09-9.83-21.92-21.92-21.92Zm15.78,75.02c0,8.7-7.08,15.78-15.78,15.78h-61.47c-1.12,0-2.15,.61-2.69,1.59l-8.83,16.05-8.83-16.05c-.54-.98-1.57-1.59-2.69-1.59h-3.85c-8.7,0-15.78-7.08-15.78-15.78V21.92c0-8.7,7.08-15.78,15.78-15.78h88.36c8.7,0,15.78,7.08,15.78,15.78v53.1Z"/><circle class="cls-1" cx="147.79" cy="49.23" r="4.82"/><path class="cls-1" d="M124.07,44.41c-2.66,0-4.82,2.16-4.82,4.82s2.16,4.82,4.82,4.82,4.82-2.16,4.82-4.82-2.16-4.82-4.82-4.82Z"/><circle class="cls-1" cx="100.34" cy="49.23" r="4.82"/></g></g></svg>