<?xml version="1.0" encoding="UTF-8"?><svg id="Camada_2" xmlns="http://www.w3.org/2000/svg" viewBox="0 0 161.29 161.29"><defs><style>.cls-1{fill:#35a29f;}</style></defs><g id="Layer_2"><g><path class="cls-1" d="M97.85,161.29H63.4c-1.51,0-2.78-1.12-2.98-2.62l-2.35-18.14c-1.32-.49-2.6-1.01-3.85-1.58l-14.47,11.14c-1.19,.92-2.89,.81-3.95-.26l-24.35-24.35c-1.06-1.06-1.18-2.75-.26-3.95l11.12-14.49c-.59-1.32-1.12-2.62-1.6-3.88l-18.1-2.35c-1.5-.19-2.61-1.47-2.61-2.97V63.4c0-1.51,1.12-2.78,2.61-2.97l18.1-2.35c.46-1.23,.99-2.5,1.59-3.83l-11.11-14.49c-.92-1.2-.8-2.88,.26-3.95L35.8,11.45c1.06-1.06,2.75-1.17,3.95-.26l14.49,11.12c1.27-.57,2.54-1.08,3.83-1.56l2.35-18.14c.19-1.5,1.47-2.62,2.98-2.62h34.45c1.5,0,2.78,1.12,2.97,2.61l2.39,18.13c1.32,.5,2.59,1.03,3.83,1.58l14.49-11.12c1.2-.92,2.88-.8,3.95,.26l24.35,24.35c1.07,1.07,1.18,2.76,.26,3.95l-11.14,14.47c.61,1.3,1.14,2.58,1.62,3.85l18.1,2.35c1.5,.19,2.61,1.47,2.61,2.97v34.45c0,1.51-1.12,2.78-2.61,2.97l-18.1,2.35c-.47,1.26-1,2.56-1.6,3.88l11.12,14.49c.92,1.19,.8,2.88-.26,3.95l-24.35,24.35c-1.06,1.07-2.75,1.18-3.95,.26l-14.49-11.12c-1.32,.59-2.62,1.12-3.88,1.6l-2.35,18.1c-.19,1.5-1.47,2.61-2.97,2.61Zm-31.81-6h29.18l2.25-17.31c.15-1.14,.93-2.1,2.03-2.46,2.11-.7,4.34-1.62,6.66-2.73,1.02-.49,2.22-.36,3.12,.33l13.84,10.62,20.63-20.63-10.62-13.84c-.69-.9-.81-2.1-.32-3.12,1.11-2.31,2.02-4.55,2.73-6.65,.36-1.09,1.32-1.88,2.46-2.03l17.31-2.25v-29.18l-17.31-2.25c-1.14-.15-2.1-.93-2.46-2.03-.71-2.14-1.61-4.29-2.75-6.56-.51-1.03-.4-2.26,.31-3.17l10.66-13.85-20.62-20.62-13.84,10.62c-.9,.69-2.11,.81-3.12,.32-2.09-1-4.27-1.9-6.66-2.74-1.06-.38-1.83-1.32-1.98-2.44l-2.29-17.32h-29.18l-2.25,17.36c-.15,1.14-.94,2.1-2.03,2.46-2.25,.75-4.41,1.63-6.61,2.68-1.02,.49-2.23,.36-3.12-.32l-13.84-10.62-20.63,20.63,10.62,13.85c.69,.9,.81,2.1,.32,3.12-1.16,2.42-2.05,4.58-2.73,6.61-.36,1.09-1.32,1.88-2.46,2.03l-17.31,2.25v29.18l17.31,2.25c1.14,.15,2.1,.93,2.46,2.03,.7,2.1,1.62,4.34,2.73,6.65,.49,1.02,.36,2.23-.32,3.12l-10.62,13.84,20.62,20.62,13.84-10.66c.91-.7,2.14-.82,3.17-.31,2.08,1.04,4.23,1.93,6.56,2.71,1.09,.36,1.88,1.32,2.03,2.46l2.25,17.36Z"/><path class="cls-1" d="M80.64,123.19c-23.46,0-42.54-19.08-42.54-42.54s19.08-42.54,42.54-42.54,42.54,19.08,42.54,42.54-19.08,42.54-42.54,42.54Zm0-79.08c-20.15,0-36.54,16.39-36.54,36.54s16.39,36.54,36.54,36.54,36.54-16.39,36.54-36.54-16.39-36.54-36.54-36.54Z"/></g></g></svg>