<?xml version="1.0" encoding="UTF-8"?><svg id="Camada_2" xmlns="http://www.w3.org/2000/svg" viewBox="0 0 181.4 181.4"><defs><style>.cls-1{fill:#35a29f;}</style></defs><g id="Layer_2"><g><path class="cls-1" d="M178.34,0H79.07c-1.69,0-3.07,1.37-3.07,3.07s1.37,3.07,3.07,3.07h96.2V116.55H88.55c-1.69,0-3.07,1.37-3.07,3.07s1.37,3.07,3.07,3.07h89.79c1.69,0,3.07-1.37,3.07-3.07V3.07c0-1.69-1.37-3.07-3.07-3.07Z"/><path class="cls-1" d="M151.41,149.38c-2.66,0-4.82,2.16-4.82,4.82s2.16,4.82,4.82,4.82,4.82-2.16,4.82-4.82-2.16-4.82-4.82-4.82Z"/><path class="cls-1" d="M129.44,149.38c-2.66,0-4.82,2.16-4.82,4.82s2.16,4.82,4.82,4.82,4.82-2.16,4.82-4.82-2.16-4.82-4.82-4.82Z"/><path class="cls-1" d="M107.46,149.38c-2.66,0-4.82,2.16-4.82,4.82s2.16,4.82,4.82,4.82,4.82-2.16,4.82-4.82-2.16-4.82-4.82-4.82Z"/><path class="cls-1" d="M97.82,87.25l19.43-14.89c2.47-1.98,4.01-4.8,4.36-7.94,.25-2.29-.16-4.54-1.17-6.55l27-21.66c1.32-1.06,1.53-2.99,.47-4.31-1.06-1.32-2.99-1.53-4.31-.47l-27.23,21.84c-4.16-2.75-9.79-2.66-13.89,.6l-11.82,8.88-25.17-17.75c5.15-4.74,8.38-11.54,8.38-19.07C73.88,11.63,62.24,0,47.94,0S22.01,11.63,22.01,25.93c0,6.74,2.59,12.89,6.82,17.51-4.76,2.64-15.02,8.41-15.71,8.78C4.03,57.24-1.05,60.85,.18,76.85c1.23,15.97,3.43,38.13,3.45,38.35,.09,.93,.61,1.77,1.4,2.28l15.01,9.61v44.78c0,5.25,4.27,9.52,9.52,9.52h36.75c5.25,0,9.52-4.27,9.52-9.52V83.84l7.31,4.26s.1,.06,.15,.08c2.65,1.35,4.78,1.63,7.17,1.63,2.68,0,5.31-.92,7.35-2.56ZM47.94,6.13c10.92,0,19.8,8.88,19.8,19.8s-8.88,19.8-19.8,19.8-19.8-8.88-19.8-19.8S37.03,6.13,47.94,6.13Zm26.37,69.72c-.95-.55-2.12-.56-3.07,0-.95,.55-1.54,1.56-1.54,2.66v93.38c0,1.87-1.52,3.39-3.39,3.39h-15.31v-36.45c0-1.69-1.37-3.07-3.07-3.07s-3.07,1.37-3.07,3.07v36.45h-15.31c-1.87,0-3.39-1.52-3.39-3.39v-46.46c0-1.05-.53-2.02-1.41-2.58l-15.17-9.71c-.51-5.22-2.26-23.22-3.29-36.74-.99-12.84,2.17-14.59,9.79-18.79,.71-.39,12.4-6.95,17.75-9.92,4.06,2.65,8.91,4.19,14.11,4.19,4.43,0,8.6-1.12,12.26-3.09l28.75,20.27c1.09,.77,2.54,.75,3.61-.05l13.64-10.25s.05-.04,.08-.06c2.45-1.97,6.04-1.57,8.01,.88,.95,1.19,1.38,2.67,1.22,4.19-.17,1.51-.91,2.87-2.04,3.78l-19.43,14.89c-1.01,.81-2.27,1.25-3.56,1.25-1.63,0-2.76-.14-4.31-.92l-11.85-6.9Z"/></g></g></svg>